<svg width="98" height="40" viewBox="0 0 98 40" fill="none" xmlns="http://www.w3.org/2000/svg">
<rect x="0.972656" y="3.8457" width="94" height="36" rx="4.54135" fill="#47BDFC"/>
<rect x="3.97266" y="0.845703" width="94" height="36" rx="4.54135" fill="#0077B6"/>
<path d="M20.2759 23.8457C19.9452 23.8457 19.6892 23.755 19.5079 23.5737C19.3266 23.3817 19.2359 23.1204 19.2359 22.7897V13.5577C19.2359 13.2164 19.3212 12.9604 19.4919 12.7897C19.6732 12.6084 19.9292 12.5177 20.2599 12.5177C20.5906 12.5177 20.8412 12.6084 21.0119 12.7897C21.1932 12.9604 21.2839 13.2164 21.2839 13.5577V22.1017H25.9239C26.2119 22.1017 26.4306 22.1764 26.5799 22.3257C26.7399 22.475 26.8199 22.6884 26.8199 22.9657C26.8199 23.243 26.7399 23.4617 26.5799 23.6217C26.4306 23.771 26.2119 23.8457 25.9239 23.8457H20.2759ZM31.5182 24.0057C30.7075 24.0057 30.0035 23.8404 29.4062 23.5097C28.8088 23.179 28.3448 22.7097 28.0142 22.1017C27.6835 21.483 27.5182 20.7577 27.5182 19.9257C27.5182 19.2964 27.6088 18.7364 27.7902 18.2457C27.9822 17.7444 28.2542 17.3177 28.6062 16.9657C28.9582 16.603 29.3795 16.331 29.8702 16.1497C30.3608 15.9577 30.9102 15.8617 31.5182 15.8617C32.3288 15.8617 33.0328 16.027 33.6302 16.3577C34.2275 16.6884 34.6915 17.1577 35.0222 17.7657C35.3528 18.3737 35.5182 19.0937 35.5182 19.9257C35.5182 20.555 35.4222 21.1204 35.2302 21.6217C35.0488 22.123 34.7822 22.555 34.4302 22.9177C34.0782 23.2697 33.6568 23.5417 33.1662 23.7337C32.6755 23.915 32.1262 24.0057 31.5182 24.0057ZM31.5182 22.4857C31.9128 22.4857 32.2595 22.3897 32.5582 22.1977C32.8568 22.0057 33.0862 21.723 33.2462 21.3497C33.4168 20.9657 33.5022 20.491 33.5022 19.9257C33.5022 19.0724 33.3208 18.4377 32.9582 18.0217C32.5955 17.595 32.1155 17.3817 31.5182 17.3817C31.1235 17.3817 30.7768 17.4777 30.4782 17.6697C30.1795 17.851 29.9448 18.1337 29.7742 18.5177C29.6142 18.891 29.5342 19.3604 29.5342 19.9257C29.5342 20.7684 29.7155 21.4084 30.0782 21.8457C30.4408 22.2724 30.9208 22.4857 31.5182 22.4857ZM40.8169 26.8857C40.2409 26.8857 39.6809 26.8324 39.1369 26.7257C38.6036 26.619 38.1182 26.4537 37.6809 26.2297C37.4782 26.123 37.3396 25.995 37.2649 25.8457C37.2009 25.6964 37.1796 25.5417 37.2009 25.3817C37.2329 25.2324 37.2969 25.099 37.3929 24.9817C37.4996 24.8644 37.6276 24.7844 37.7769 24.7417C37.9262 24.699 38.0809 24.7204 38.2409 24.8057C38.7102 25.0404 39.1529 25.1897 39.5689 25.2537C39.9956 25.3284 40.3582 25.3657 40.6569 25.3657C41.3716 25.3657 41.9049 25.1897 42.2569 24.8377C42.6196 24.4964 42.8009 23.9844 42.8009 23.3017V21.8617H42.9449C42.7849 22.4057 42.4489 22.843 41.9369 23.1737C41.4356 23.4937 40.8649 23.6537 40.2249 23.6537C39.5209 23.6537 38.9076 23.4937 38.3849 23.1737C37.8622 22.843 37.4569 22.3844 37.1689 21.7977C36.8809 21.211 36.7369 20.5284 36.7369 19.7497C36.7369 19.163 36.8169 18.635 36.9769 18.1657C37.1476 17.6857 37.3822 17.275 37.6809 16.9337C37.9902 16.5924 38.3582 16.331 38.7849 16.1497C39.2222 15.9577 39.7022 15.8617 40.2249 15.8617C40.8862 15.8617 41.4622 16.027 41.9529 16.3577C42.4542 16.6777 42.7796 17.1044 42.9289 17.6377L42.7689 18.0377V16.9017C42.7689 16.571 42.8542 16.3204 43.0249 16.1497C43.2062 15.979 43.4516 15.8937 43.7609 15.8937C44.0809 15.8937 44.3262 15.979 44.4969 16.1497C44.6676 16.3204 44.7529 16.571 44.7529 16.9017V23.0617C44.7529 24.331 44.4169 25.2857 43.7449 25.9257C43.0729 26.5657 42.0969 26.8857 40.8169 26.8857ZM40.7689 22.1337C41.1849 22.1337 41.5422 22.0377 41.8409 21.8457C42.1396 21.6537 42.3689 21.3817 42.5289 21.0297C42.6996 20.667 42.7849 20.2404 42.7849 19.7497C42.7849 19.0137 42.6036 18.4377 42.2409 18.0217C41.8782 17.595 41.3876 17.3817 40.7689 17.3817C40.3529 17.3817 39.9956 17.4777 39.6969 17.6697C39.3982 17.8617 39.1636 18.1337 38.9929 18.4857C38.8329 18.8377 38.7529 19.259 38.7529 19.7497C38.7529 20.4857 38.9342 21.067 39.2969 21.4937C39.6596 21.9204 40.1502 22.1337 40.7689 22.1337ZM47.8172 23.9577C47.4972 23.9577 47.2518 23.8617 47.0812 23.6697C46.9105 23.4777 46.8252 23.211 46.8252 22.8697V16.9977C46.8252 16.6457 46.9105 16.379 47.0812 16.1977C47.2518 16.0057 47.4972 15.9097 47.8172 15.9097C48.1372 15.9097 48.3825 16.0057 48.5532 16.1977C48.7345 16.379 48.8252 16.6457 48.8252 16.9977V22.8697C48.8252 23.211 48.7398 23.4777 48.5692 23.6697C48.3985 23.8617 48.1478 23.9577 47.8172 23.9577ZM47.8172 14.4217C47.4438 14.4217 47.1505 14.331 46.9372 14.1497C46.7345 13.9577 46.6332 13.6964 46.6332 13.3657C46.6332 13.0244 46.7345 12.763 46.9372 12.5817C47.1505 12.4004 47.4438 12.3097 47.8172 12.3097C48.2012 12.3097 48.4945 12.4004 48.6972 12.5817C48.8998 12.763 49.0012 13.0244 49.0012 13.3657C49.0012 13.6964 48.8998 13.9577 48.6972 14.1497C48.4945 14.331 48.2012 14.4217 47.8172 14.4217ZM51.8953 23.9737C51.5753 23.9737 51.3299 23.8884 51.1593 23.7177C50.9886 23.5364 50.9033 23.2804 50.9033 22.9497V16.9017C50.9033 16.571 50.9886 16.3204 51.1593 16.1497C51.3299 15.979 51.5699 15.8937 51.8793 15.8937C52.1886 15.8937 52.4286 15.979 52.5993 16.1497C52.7699 16.3204 52.8553 16.571 52.8553 16.9017V17.9897L52.6793 17.5897C52.9139 17.0244 53.2766 16.5977 53.7673 16.3097C54.2686 16.011 54.8339 15.8617 55.4633 15.8617C56.0926 15.8617 56.6099 15.979 57.0153 16.2137C57.4206 16.4484 57.7246 16.8057 57.9273 17.2857C58.1299 17.755 58.2313 18.3524 58.2313 19.0777V22.9497C58.2313 23.2804 58.1459 23.5364 57.9753 23.7177C57.8046 23.8884 57.5593 23.9737 57.2393 23.9737C56.9193 23.9737 56.6686 23.8884 56.4873 23.7177C56.3166 23.5364 56.2313 23.2804 56.2313 22.9497V19.1737C56.2313 18.5657 56.1139 18.123 55.8793 17.8457C55.6553 17.5684 55.3033 17.4297 54.8233 17.4297C54.2366 17.4297 53.7673 17.6164 53.4153 17.9897C53.0739 18.3524 52.9033 18.8377 52.9033 19.4457V22.9497C52.9033 23.6324 52.5673 23.9737 51.8953 23.9737Z" fill="#F6F8FA"/>
<path d="M78.0625 13.7368L84.0229 18.8457L78.0625 23.9547M70.0039 18.8452H84.0216" stroke="#F8F8F8" stroke-width="1.70298" stroke-linecap="round" stroke-linejoin="round"/>
</svg>
